<?xml version="1.0" encoding="UTF-8"?><svg id="Calque_1" xmlns="http://www.w3.org/2000/svg" viewBox="0 0 1006.3 1005.93"><defs><style>.cls-1{fill:#ef7a1a;}.cls-2{fill:#fff;}</style></defs><rect class="cls-1" x=".18" width="1006.11" height="1006.11" rx="126.35" ry="126.35"/><path class="cls-2" d="M530.76,195.77c107,0,194.44,44.87,243.91,126.56l-75.94,52.93c-35.66-58.68-94.34-89.75-166.83-89.75-58.68,0-107,19.56-143.82,59.83-36.82,40.27-55.23,92.05-55.23,157.63,0,65.58,18.41,117.35,55.23,157.63,36.82,40.26,85.14,59.82,143.82,59.82,72.49,0,131.17-31.06,166.83-89.74l75.94,52.92c-49.47,81.69-136.91,126.56-243.91,126.56-177.19,0-299.14-130-299.14-307.19,0-177.19,121.96-307.2,299.14-307.2Z"/></svg>